<svg xmlns="http://www.w3.org/2000/svg" viewBox="0 0 45 42" width="45" height="42">
	<style>
		tspan { white-space:pre }
		.shp0 { fill: #f89031 } 
	</style>
	<path id="Shape 1008" class="shp0" d="M17.2 31.39L7.64 41L5.19 35.59L0 33.32L8.28 25C10.49 28.08 13.61 30.31 17.2 31.39ZM44 33.32L38.81 35.59L36.36 41L26.86 31.45C30.48 30.41 33.63 28.2 35.87 25.14L44 33.32ZM22 0C13.71 0 6.99 6.76 6.99 15.09C6.99 18.26 7.97 21.21 9.63 23.64C11.75 26.73 14.99 28.98 18.76 29.82C19.81 30.05 20.89 30.17 22 30.17C23.11 30.17 24.19 30.05 25.24 29.82C29.01 28.98 32.25 26.73 34.37 23.64C36.03 21.21 37.01 18.26 37.01 15.09C37.01 6.76 30.29 0 22 0ZM27.98 24.34L22 21.18L16.02 24.34L17.16 17.65L12.32 12.9L19.01 11.93L22 5.83L24.99 11.93L31.68 12.9L26.84 17.65L27.98 24.34Z" />
</svg>